# xmcd
#
# Track frame offsets:
#	150
#	11279
#	26169
#	41106
#	54208
#	68648
#	84524
#	102549
#	119689
#	139276
#	157591
#	174117
#	195780
#	211760
#	234234
#	257192
#	272178
#	291277
#	309725
#	329460
#	349268
#
# Disc length: 4912 seconds
#
# Revision: 0
# Processed by: cddbd v1.5.2PL0 Copyright (c) Steve Scherf et al.
# Submitted via: EasyCDDAExtractor 10.0.5.1
#
DISCID=27132e15
DTITLE=Bee Gees - Number Ones
DYEAR=2004
DGENRE=Pop
TTITLE0=Massachusetts
TTITLE1=World
TTITLE2=Words
TTITLE3=I've Got A Message To You
TTITLE4=I Started A Joke
TTITLE5=Don't Forget To Remember
TTITLE6=How Can You Mend A Broken Hear
TTITLE7=Jive Talkin
TTITLE8=You Should Be Dancing
TTITLE9=How Deep Is Your Love
TTITLE10=Love So Right
TTITLE11=Stayin Alive
TTITLE12=Night Fever
TTITLE13=Too Much Heaven
TTITLE14=Tragedy
TTITLE15=More Than A Woman
TTITLE16=Love You Inside Out
TTITLE17=You Win Again
TTITLE18=Man In The Middle
TTITLE19=Islands In The Stream
TTITLE20=Immortality
EXTD=
EXTT0=
EXTT1=
EXTT2=
EXTT3=
EXTT4=
EXTT5=
EXTT6=
EXTT7=
EXTT8=
EXTT9=
EXTT10=
EXTT11=
EXTT12=
EXTT13=
EXTT14=
EXTT15=
EXTT16=
EXTT17=
EXTT18=
EXTT19=
EXTT20=
PLAYORDER=
